<?xml version="1.0" encoding="utf-8"?>
<!-- Generator: Adobe Illustrator 16.0.0, SVG Export Plug-In . SVG Version: 6.00 Build 0)  -->
<!DOCTYPE svg PUBLIC "-//W3C//DTD SVG 1.1//EN" "http://www.w3.org/Graphics/SVG/1.1/DTD/svg11.dtd">
<svg version="1.1" id="Layer_1" xmlns="http://www.w3.org/2000/svg" xmlns:xlink="http://www.w3.org/1999/xlink" x="0px" y="0px"
	 width="646.903px" height="251.678px" viewBox="0 0 646.903 251.678" enable-background="new 0 0 646.903 251.678"
	 xml:space="preserve">
<g>
	<path fill="#905C8B" d="M103.075,0H32.981C14.759,0.005,0.005,14.771,0,32.991v70.093c0.005,18.21,14.764,32.967,32.981,32.972
		h70.093c18.217-0.005,32.976-14.762,32.981-32.972V32.991C136.051,14.771,121.297,0.005,103.075,0z M115.664,115.662
		c-3.246,3.234-7.648,5.21-12.589,5.215H32.981c-4.941-0.005-9.344-1.981-12.59-5.215c-3.231-3.244-5.208-7.644-5.213-12.577V32.991
		c0.005-4.944,1.981-9.349,5.213-12.595c3.251-3.236,7.648-5.213,12.59-5.218h70.093c4.941,0.005,9.338,1.981,12.589,5.218
		c3.231,3.246,5.208,7.651,5.213,12.595v70.093C120.872,108.018,118.896,112.418,115.664,115.662z"/>
	<path fill="#905C8B" d="M93.978,32.7H80.731l-3.331,17.328H65.572l3.33-17.328H55.646L52.32,50.028H38.011v11.725h12.061
		l-2.406,12.545h-9.655v11.725h7.402l-3.32,17.328h13.247l3.331-17.328h11.829l-3.331,17.328h13.257l3.325-17.328h14.31V74.298
		H85.999l2.406-12.545h9.655V50.028h-7.402L93.978,32.7z M72.747,74.298H60.918l2.406-12.545h11.829L72.747,74.298z"/>
	<path fill="#905C8B" d="M177.195,204.986c-7.743,0-13.657-2.807-17.743-8.43c-4.086-5.613-6.127-12.105-6.127-19.468
		c0-7.905,2.149-14.289,6.453-19.151c4.298-4.866,9.887-7.303,16.77-7.303c5.163,0,9.689,1.512,13.587,4.517
		c3.898,3.014,6.196,7.342,6.893,12.984h13.711v-32.02h-13.711v7.986c-5.964-5.104-13.277-7.658-21.934-7.658
		c-10.104,0-19.028,3.834-26.771,11.493c-7.737,7.658-11.611,17.377-11.611,29.151c0,11.019,3.548,20.753,10.643,29.187
		c7.1,8.444,16.829,12.664,29.192,12.664c17.471,0,29.7-7.768,36.692-23.307l-12.659-5.964
		C195.738,199.876,187.946,204.986,177.195,204.986z"/>
	<path fill="#905C8B" d="M295.315,163.62c0-6.774-0.603-11.918-1.813-15.441c-1.21-3.522-3.483-6.358-6.813-8.508
		c-3.335-2.149-7.58-3.227-12.743-3.227c-8.276,0-17.012,3.711-26.208,11.127v-43.059h-29.429v13.627h14.112v84.909h-14.112v13.628
		h42.977v-13.628h-13.548v-42.734c9.141-6.72,16.666-10.08,22.581-10.08c2.312,0,4.313,0.647,6.008,1.933
		c1.69,1.294,2.727,2.935,3.103,4.921c0.375,1.991,0.563,5.939,0.563,11.854v47.735h28.628v-13.628h-13.306V163.62z"/>
	<path fill="#905C8B" d="M379.476,166.925c0-6.34-0.366-10.965-1.087-13.87c-0.731-2.905-2.145-5.603-4.239-8.103
		c-2.096-2.501-5.277-4.541-9.557-6.127c-4.269-1.587-9.338-2.382-15.198-2.382c-15.97,0-27.205,6.077-33.708,18.223l14.675,3.873
		c3.439-6.126,9.003-9.189,16.691-9.189c4.466,0,8.083,0.859,10.851,2.579c2.767,1.72,4.525,3.656,5.276,5.801
		c0.761,2.154,1.137,5.218,1.137,9.195v7.742c-6.829-4.407-13.904-6.611-21.207-6.611c-7.856,0-14.556,2.392-20.12,7.175
		c-5.563,4.783-8.35,10.806-8.35,18.064c0,7.204,2.619,13.113,7.866,17.738c5.238,4.625,11.404,6.938,18.5,6.938
		c9.141,0,17.422-3.603,24.844-10.807v9.512h26.77v-13.628h-13.143V166.925z M364.316,196.764
		c-6.611,6.235-13.628,9.348-21.049,9.348c-4.299,0-7.698-1.234-10.198-3.705s-3.755-5.534-3.755-9.19
		c0-3.923,1.423-7.125,4.278-9.596c2.846-2.476,6.395-3.716,10.644-3.716c6.769,0,13.469,2.584,20.08,7.748V196.764z"/>
	<path fill="#905C8B" d="M444.707,137.862c-3.409,0.964-6.651,2.96-9.714,5.964c-3.064,3.014-5.455,5.801-7.175,10.366v-17.575
		h-27.986v13.627h15.723v52.805h-15.723v13.628h48.057v-13.628h-17.007v-17.175c0-10.643,0.919-20.025,2.777-24.142
		c1.857-4.111,4.703-6.947,8.547-8.504c3.845-1.556,9.665-2.337,17.462-2.337h2.56v-14.482H458.7
		C452.78,136.409,448.116,136.893,444.707,137.862z"/>
	<polygon fill="#905C8B" points="496.677,136.617 469.264,136.617 469.264,150.244 481.359,150.244 481.359,203.048 
		469.264,203.048 469.264,216.676 508.772,216.676 508.772,203.048 496.677,203.048 	"/>
	<path fill="#905C8B" d="M488.454,122.375c2.53,0,4.704-0.899,6.532-2.701c1.828-1.801,2.737-3.992,2.737-6.574
		c0-2.579-0.909-4.756-2.737-6.53s-4.002-2.661-6.532-2.661c-2.688,0-4.911,0.914-6.65,2.74c-1.749,1.828-2.618,3.98-2.618,6.451
		c0,2.53,0.899,4.706,2.697,6.532C483.682,121.46,485.875,122.375,488.454,122.375z"/>
	<path fill="#905C8B" d="M534.016,110.57l-15.322,14.033v12.014h-15.179v13.627h15.179v40.71c0,7.639,0.376,13.014,1.127,16.127
		c0.756,3.123,2.584,5.712,5.484,7.787c2.905,2.065,6.695,3.104,11.369,3.104c3.923,0,7.852-0.702,11.774-2.096v-13.953
		c-2.742,1.077-5.539,1.61-8.385,1.61c-2.693,0-4.368-0.711-5.04-2.134c-0.677-1.424-1.008-5.174-1.008-11.246v-39.909h14.433
		v-13.627h-14.433V110.57z"/>
	<polygon fill="#905C8B" points="607.573,136.617 607.573,150.244 617.89,150.244 601.366,195.469 584.508,150.244 593.866,150.244 
		593.866,136.617 555.237,136.617 555.237,150.244 568.223,150.244 593.866,215.307 584.508,238.288 569.271,238.288 
		569.271,251.678 595.151,251.678 633.78,150.244 646.903,150.244 646.903,136.617 	"/>
</g>
</svg>
